<?xml version="1.0" encoding="UTF-8" standalone="no"?>
<svg
   xmlns:dc="http://purl.org/dc/elements/1.1/"
   xmlns:cc="http://creativecommons.org/ns#"
   xmlns:rdf="http://www.w3.org/1999/02/22-rdf-syntax-ns#"
   xmlns:svg="http://www.w3.org/2000/svg"
   xmlns="http://www.w3.org/2000/svg"
   width="128"
   height="128"
   viewBox="0 0 33.866667 33.866666"
   version="1.1"
   id="svg8">
  <title
     id="title815">Logo</title>
  <defs
     id="defs2" />
  <metadata
     id="metadata5">
    <rdf:RDF>
      <cc:Work
         rdf:about="">
        <dc:format>image/svg+xml</dc:format>
        <dc:type
           rdf:resource="http://purl.org/dc/dcmitype/StillImage" />
        <dc:title>Logo</dc:title>
        <dc:creator>
          <cc:Agent>
            <dc:title>Joe Cisneros</dc:title>
          </cc:Agent>
        </dc:creator>
      </cc:Work>
    </rdf:RDF>
  </metadata>
  <g
     id="layer1"
     transform="matrix(0.54237289,0,0,0.54237289,-7.3963383,-36.491374)">
    <path
       style="fill:none;stroke:#000000;stroke-width:2;stroke-linecap:butt;stroke-linejoin:miter;stroke-miterlimit:4;stroke-dasharray:none;stroke-opacity:1"
       d="m 18.449267,74.305206 c 8.382293,-10.982269 15.724659,-2.099966 25.692885,-1.090039 8.664847,-1.142499 18.388507,-9.283195 25.766754,-1.462114 6.539561,8.524373 2.077835,13.936028 -3.029406,33.692557 -1.535033,13.98286 -5.47662,22.58085 -9.392729,22.84059 -7.075111,-0.13086 -9.030319,-11.57412 -13.377045,-11.38513 -4.913691,0.37797 -5.332438,11.72676 -11.684023,11.82124 -5.177132,-0.22439 -9.485738,-12.03772 -9.700927,-21.88476 C 21.10734,96.874787 13.018293,82.713982 18.449267,74.305206 Z"
       id="path3699" />
    <path
       style="fill:none;stroke:#000000;stroke-width:2;stroke-linecap:butt;stroke-linejoin:miter;stroke-miterlimit:4;stroke-dasharray:none;stroke-opacity:1"
       d="m 39.234512,72.210146 c 13.407169,6.961884 17.188676,3.09417 17.188676,3.09417"
       id="path4510" />
  </g>
</svg>
